<svg width="16" height="16" viewBox="0 0 16 16" fill="none" xmlns="http://www.w3.org/2000/svg">
<path d="M11.76 7.624C11.784 7.424 11.8 7.216 11.8 7C11.8 6.784 11.784 6.576 11.752 6.376L13.104 5.32C13.224 5.224 13.256 5.048 13.184 4.912L11.904 2.696C11.824 2.552 11.656 2.504 11.512 2.552L9.92 3.192C9.584 2.936 9.232 2.728 8.84 2.568L8.6 0.872C8.576 0.712 8.44 0.6 8.28 0.6H5.72C5.56 0.6 5.432 0.712 5.408 0.872L5.168 2.568C4.776 2.728 4.416 2.944 4.088 3.192L2.496 2.552C2.352 2.496 2.184 2.552 2.104 2.696L0.824 4.912C0.744 5.056 0.776 5.224 0.904 5.32L2.256 6.376C2.224 6.576 2.2 6.792 2.2 7C2.2 7.208 2.216 7.424 2.248 7.624L0.896 8.68C0.776 8.776 0.744 8.952 0.816 9.088L2.096 11.304C2.176 11.448 2.344 11.496 2.488 11.448L4.08 10.808C4.416 11.064 4.768 11.272 5.16 11.432L5.4 13.128C5.432 13.288 5.56 13.4 5.72 13.4H8.28C8.44 13.4 8.576 13.288 8.592 13.128L8.832 11.432C9.224 11.272 9.584 11.056 9.912 10.808L11.504 11.448C11.648 11.504 11.816 11.448 11.896 11.304L13.176 9.088C13.256 8.944 13.224 8.776 13.096 8.68L11.76 7.624V7.624ZM7 9.4C5.68 9.4 4.6 8.32 4.6 7C4.6 5.68 5.68 4.6 7 4.6C8.32 4.6 9.4 5.68 9.4 7C9.4 8.32 8.32 9.4 7 9.4Z" fill="white"/>
</svg>
