<svg width="16" height="16" viewBox="0 0 16 16" fill="none" xmlns="http://www.w3.org/2000/svg">
<path d="M8 4V6L10.6667 3.33333L8 0.666666V2.66667C5.05333 2.66667 2.66667 5.05333 2.66667 8C2.66667 9.04667 2.97333 10.02 3.49333 10.84L4.46667 9.86667C4.16667 9.31333 4 8.67333 4 8C4 5.79333 5.79333 4 8 4ZM12.5067 5.16L11.5333 6.13333C11.8267 6.69333 12 7.32667 12 8C12 10.2067 10.2067 12 8 12V10L5.33333 12.6667L8 15.3333V13.3333C10.9467 13.3333 13.3333 10.9467 13.3333 8C13.3333 6.95333 13.0267 5.98 12.5067 5.16V5.16Z" fill="white"/>
</svg>
