<svg width="26" height="27" viewBox="0 0 26 27" fill="none" xmlns="http://www.w3.org/2000/svg">
<path d="M20.5 16.125C21.875 16.125 23.125 16.625 24 17.625L25.5 16.125V21.125H20.5L22.75 18.875C22.125 18.375 21.375 18 20.5 18C18.75 18 17.375 19.375 17.375 21.125C17.375 22.875 18.75 24.25 20.5 24.25C21.5 24.25 22.375 23.75 23 23H25.125C24.375 24.875 22.625 26.125 20.5 26.125C17.75 26.125 15.5 23.875 15.5 21.125C15.5 18.375 17.75 16.125 20.5 16.125ZM12.375 21.125C12.375 19.75 12.75 18.5 13.25 17.375H13C10.625 17.375 8.625 15.375 8.625 13C8.625 10.625 10.625 8.625 13 8.625C15.375 8.625 17.375 10.625 17.375 13C17.375 13.25 17.375 13.5 17.25 13.625C18.25 13.25 19.25 13 20.5 13C21.125 13 21.75 13.125 22.375 13.25V13C22.375 12.625 22.375 12.125 22.25 11.75L24.875 9.75C25.125 9.5 25.125 9.25 25 9L22.5 4.625C22.375 4.25 22.125 4.25 21.75 4.25L18.625 5.5C18 5 17.25 4.625 16.5 4.25L16 0.874999C16.125 0.749999 15.75 0.5 15.5 0.5H10.5C10.25 0.5 9.875 0.75 9.875 1L9.375 4.375C8.625 4.625 8 5.125 7.25 5.5L4.25 4.25C3.875 4.25 3.625 4.25 3.375 4.625L0.874999 9C0.749999 9.25 0.874999 9.5 1.125 9.75L3.75 11.75C3.75 12.125 3.625 12.625 3.625 13C3.625 13.375 3.625 13.875 3.75 14.25L1.125 16.375C0.874999 16.625 0.874999 16.875 0.999999 17.125L3.5 21.5C3.625 21.75 3.875 21.75 4.25 21.75L7.375 20.5C8 21 8.75 21.375 9.5 21.75L10 25.125C10 25.375 10.25 25.625 10.625 25.625H13.75C12.875 24.25 12.375 22.75 12.375 21.125Z" fill="#E75051"/>
</svg>
